<svg id="Layer_1" data-name="Layer 1" xmlns="http://www.w3.org/2000/svg" viewBox="0 0 773 169"><defs><style>.cls-1{fill:#8a171a;}.cls-2{fill:#7f7f7f;}</style></defs><title>kerilex logo</title><path class="cls-1" d="M46.85,121v26.05a15.44,15.44,0,0,1-1.18,6,14.39,14.39,0,0,1-3.3,4.87,15.76,15.76,0,0,1-4.88,3.22,15,15,0,0,1-6,1.18,15.77,15.77,0,0,1-6.06-1.18,16.06,16.06,0,0,1-5.07-3.22,15.61,15.61,0,0,1-3.47-4.87,14,14,0,0,1-1.29-6V23.77a13.65,13.65,0,0,1,1.29-5.92A16.46,16.46,0,0,1,20.41,13,15.54,15.54,0,0,1,25.48,9.7a16.33,16.33,0,0,1,12.19,0A14.42,14.42,0,0,1,42.55,13a16,16,0,0,1,3.24,4.87A15,15,0,0,1,47,23.77l-.12,62.65L81.1,55a14.66,14.66,0,0,1,10.21-4.11,15.21,15.21,0,0,1,6,1.23,16,16,0,0,1,5.05,3.4,18.08,18.08,0,0,1,3.52,5,14.46,14.46,0,0,1,1.34,6.16,12.67,12.67,0,0,1-1.17,5.86,16.21,16.21,0,0,1-3.64,5.05L74,103.78l35.19,32.14a12.1,12.1,0,0,1,3.23,4.46,13.69,13.69,0,0,1,1,5.16,16.08,16.08,0,0,1-1.23,6.16,17.61,17.61,0,0,1-3.34,5.28,16.28,16.28,0,0,1-4.87,3.63A13.28,13.28,0,0,1,98,162a16.39,16.39,0,0,1-11.5-4.69Z"/><path class="cls-1" d="M159,120.44a28,28,0,0,0,9.73,9.62,25.5,25.5,0,0,0,13.14,3.51,28.37,28.37,0,0,0,7.33-.76,21.31,21.31,0,0,0,5-2.05,16.92,16.92,0,0,1,4.63-2.17,16.23,16.23,0,0,1,4.4-.65,14.08,14.08,0,0,1,6,1.29,15.53,15.53,0,0,1,4.81,3.52,16.74,16.74,0,0,1,3.23,5.16,16.34,16.34,0,0,1,1.17,6.1,14,14,0,0,1-2.23,7.57,18.79,18.79,0,0,1-6.8,6.22A41.46,41.46,0,0,1,198,162a72.08,72.08,0,0,1-16.13,1.59,56,56,0,0,1-22.35-4.52,59.26,59.26,0,0,1-18.36-12.26,58.14,58.14,0,0,1-12.43-18.12,54.5,54.5,0,0,1-4.57-22.23,55.21,55.21,0,0,1,4.57-22.41,58.67,58.67,0,0,1,12.43-18.24,57.9,57.9,0,0,1,18.36-12.26A58,58,0,0,1,204,53.51a57.66,57.66,0,0,1,18.19,12.08,59,59,0,0,1,12.43,18,56.09,56.09,0,0,1,4.87,22.05,14.11,14.11,0,0,1-4.28,10.74,15.49,15.49,0,0,1-11.09,4Zm48.45-26a26.54,26.54,0,0,0-9.86-11.26,27.4,27.4,0,0,0-15.13-4.22,25.29,25.29,0,0,0-15,4.4,28.22,28.22,0,0,0-9.38,11.08Z"/><path class="cls-1" d="M255.07,107.53A58.06,58.06,0,0,1,260.23,85a61,61,0,0,1,31.5-31,58.85,58.85,0,0,1,22.58-4.87h1.06q7.74.12,11.91,4.46a15.3,15.3,0,0,1,4.16,11,14.69,14.69,0,0,1-1.29,6.21,16.2,16.2,0,0,1-3.46,4.93A15.5,15.5,0,0,1,321.53,79a17.12,17.12,0,0,1-6.28,1.17,27.84,27.84,0,0,0-11.08,2.23,29.21,29.21,0,0,0-9.15,6.1,29.66,29.66,0,0,0-6.28,9.09,28.3,28.3,0,0,0-2.46,11.2V147a15.57,15.57,0,0,1-1.18,6.1,14.48,14.48,0,0,1-3.28,4.87,15.72,15.72,0,0,1-4.87,3.22,14.83,14.83,0,0,1-5.92,1.18,16.12,16.12,0,0,1-6.1-1.18,15.91,15.91,0,0,1-5.11-3.22,15.75,15.75,0,0,1-3.46-4.87,14.48,14.48,0,0,1-1.29-6.1Z"/><path class="cls-1" d="M345.05,23a15.8,15.8,0,0,1,1.34-6.51A17.88,17.88,0,0,1,350,11.16a16.79,16.79,0,0,1,5.32-3.58,16.67,16.67,0,0,1,12.86,0,17,17,0,0,1,5.32,3.58,18,18,0,0,1,3.62,5.28,16.34,16.34,0,0,1,0,13,17.56,17.56,0,0,1-3.62,5.34,16.68,16.68,0,0,1-5.32,3.58A16.59,16.59,0,0,1,350,34.74a17.41,17.41,0,0,1-3.63-5.34A15.89,15.89,0,0,1,345.05,23ZM346,64.6a14.35,14.35,0,0,1,1.28-6,16.14,16.14,0,0,1,8.54-8.27A15.76,15.76,0,0,1,362,49.11a14.65,14.65,0,0,1,6,1.23,15.08,15.08,0,0,1,4.85,3.35A15.29,15.29,0,0,1,376,58.61a15.45,15.45,0,0,1,1.17,6v83.52a14.91,14.91,0,0,1-1.22,6,15.85,15.85,0,0,1-8.24,8.27,14.53,14.53,0,0,1-6,1.24,14.92,14.92,0,0,1-6-1.24,16.21,16.21,0,0,1-8.48-8.27,14.31,14.31,0,0,1-1.28-6Z"/><path class="cls-2" d="M524.82,124.34h1.55l-4.88,39.51H392.75v-1.11L418.5,159c2.44-11.1,4.22-53.72,4.22-66.15V65.52c0-17.31-1.11-43.5-3.11-55.49L393,6.26V5.15h81.91V6.26L448,10c-1.77,13.32-3.33,39.07-3.33,59.49v46.61c0,10.88.89,26,1.78,35.07a122.16,122.16,0,0,0,38.17,5.55c14.43,0,25.31-1.78,28.86-2.89Zm-99-115.2v150.5h7.55V9.14Z"/><path class="cls-2" d="M529.27,52.77h80.79l1.86,23.61h-1.09l-5.59-18.49c-4.35-.31-9.63-.46-14.45-.46a116.91,116.91,0,0,0-23.77,2,247,247,0,0,0-1.55,28.12c0,5.12.15,11.34.62,16q8.16.47,15.38.47a165.57,165.57,0,0,0,17.71-.78l3.42-13.05h1.24v32.47H602.6L599,108.85a117.62,117.62,0,0,0-14.45-.77,152,152,0,0,0-18.34.93c-.46,4.5-.77,10.41-.77,14.45,0,9.16.46,25.32,1.39,32.78,7,2.18,16.16,2.8,24.24,2.8a129.4,129.4,0,0,0,14.61-.62l6.06-18.34h1.08l-1.55,23.77H529.42v-.77l18-2.64c1.4-7.77,2.64-36.52,2.64-46.46V94.87c0-6.68-.62-25-2.17-38.69l-18.64-2.64Zm23,2.95V160.9h5.28V55.72Z"/><path class="cls-2" d="M618.46,52.77H682v.77L657.76,56c10.57,16.93,21.44,29.21,35,44.74C706.24,87,723,66.9,729.7,56l-23.15-2.49v-.77h50.8v.77l-17.86,2.33c-12.28,11.34-37.91,42.88-42.42,50.34,14.3,18.8,34.65,44.44,46,54.38l14.14,2.49v.77H695.52v-.77l24.08-2.64c-9.17-15.7-25.48-34.65-36-46.3-14.92,15.38-31.23,35.42-38.23,46.3l23.15,2.64v.77H618.14v-.77l17.41-2.64c15.84-15.54,35-39.47,43.81-51.9-11.19-14.76-33.87-43.19-44-52.51l-16.93-2.49Zm21,2.64L725.35,160.9h6.21L645.8,55.41Z"/></svg>